<svg width="29" height="29" viewBox="0 0 29 29" fill="none" xmlns="http://www.w3.org/2000/svg">
<g id="Icon/Messages">
<path id="Icon (Stroke)" fill-rule="evenodd" clip-rule="evenodd" d="M14.1699 5.16794C8.85418 5.16794 4.54492 9.4772 4.54492 14.7929C4.54492 16.0319 4.77857 17.2141 5.20341 18.2996C5.42346 18.8618 5.53192 19.5053 5.42116 20.1631L4.73694 24.2259L8.7998 23.5417C9.45753 23.4309 10.1011 23.5394 10.6633 23.7595C11.7487 24.1843 12.931 24.4179 14.1699 24.4179C19.4857 24.4179 23.7949 20.1087 23.7949 14.7929C23.7949 9.4772 19.4857 5.16794 14.1699 5.16794ZM2.79492 14.7929C2.79492 8.5107 7.88768 3.41794 14.1699 3.41794C20.4522 3.41794 25.5449 8.5107 25.5449 14.7929C25.5449 21.0752 20.4522 26.1679 14.1699 26.1679C12.7092 26.1679 11.3108 25.8922 10.0254 25.3891C9.69664 25.2604 9.37626 25.2193 9.09043 25.2674L4.62345 26.0197C3.63464 26.1862 2.77666 25.3282 2.94318 24.3394L3.69546 19.8724C3.74359 19.5866 3.70248 19.2662 3.57379 18.9374C3.07069 17.652 2.79492 16.2536 2.79492 14.7929Z" fill="black"/>
<path id="Icon (Stroke)_2" fill-rule="evenodd" clip-rule="evenodd" d="M8.62827 12.4593C8.62827 11.9761 9.02002 11.5843 9.50327 11.5843H18.8366C19.3198 11.5843 19.7116 11.9761 19.7116 12.4593C19.7116 12.9426 19.3198 13.3343 18.8366 13.3343H9.50327C9.02002 13.3343 8.62827 12.9426 8.62827 12.4593ZM8.62827 17.126C8.62827 16.6427 9.02002 16.251 9.50327 16.251H14.1699C14.6532 16.251 15.0449 16.6427 15.0449 17.126C15.0449 17.6092 14.6532 18.001 14.1699 18.001H9.50327C9.02002 18.001 8.62827 17.6092 8.62827 17.126Z" fill="black"/>
</g>
</svg>
