<svg xmlns="http://www.w3.org/2000/svg" width="16" height="16" viewBox="0 0 16 16" fill="none">
  <path fill-rule="evenodd" clip-rule="evenodd" d="M6.87641 1.1303C6.95666 0.949741 7.13572 0.833374 7.33331 0.833374C7.99635 0.833374 8.63224 1.09677 9.10108 1.56561C9.56992 2.03445 9.83331 2.67033 9.83331 3.33337V5.50004H13.104C13.3688 5.49749 13.6309 5.55229 13.8724 5.66069C14.1149 5.76951 14.3308 5.92975 14.5052 6.13029C14.6796 6.33084 14.8083 6.56691 14.8824 6.82214C14.9565 7.07736 14.9742 7.34565 14.9343 7.60841L14.0143 13.6083C14.0143 13.6084 14.0143 13.6083 14.0143 13.6083C13.948 14.0455 13.7259 14.444 13.3891 14.7303C13.0529 15.0161 12.6251 15.171 12.184 15.1667H2.66665C2.18042 15.1667 1.7141 14.9736 1.37028 14.6297C1.02647 14.2859 0.833313 13.8196 0.833313 13.3334V8.66671C0.833313 8.18048 1.02647 7.71416 1.37028 7.37035C1.7141 7.02653 2.18042 6.83337 2.66665 6.83337H4.34171L6.87641 1.1303ZM5.16665 7.43948L7.64381 1.86586C7.92583 1.92553 8.18703 2.06577 8.39397 2.27271C8.67528 2.55402 8.83331 2.93555 8.83331 3.33337V6.00004C8.83331 6.27618 9.05717 6.50004 9.33331 6.50004H13.1066L13.1123 6.50001C13.2331 6.49864 13.3528 6.52355 13.463 6.57302C13.5732 6.62248 13.6713 6.69531 13.7506 6.78647C13.8299 6.87763 13.8884 6.98493 13.922 7.10095C13.9557 7.21688 13.9638 7.33875 13.9457 7.45811C13.9457 7.45819 13.9457 7.45803 13.9457 7.45811L13.0256 13.4584C12.9955 13.6571 12.8946 13.8382 12.7414 13.9684C12.5883 14.0986 12.3933 14.169 12.1923 14.1667L5.16665 14.1667V7.43948ZM4.16665 14.1667V7.83337H2.66665C2.44563 7.83337 2.23367 7.92117 2.07739 8.07745C1.92111 8.23373 1.83331 8.44569 1.83331 8.66671V13.3334C1.83331 13.5544 1.92111 13.7663 2.07739 13.9226C2.23367 14.0789 2.44563 14.1667 2.66665 14.1667H4.16665Z" fill="#1877F2"/>
</svg>